<svg width="24" height="24" viewBox="0 0 24 24" fill="none" xmlns="http://www.w3.org/2000/svg">
<path fill-rule="evenodd" clip-rule="evenodd" d="M3 0C1.34315 0 0 1.34315 0 3V21C0 22.6569 1.34315 24 3 24H21C22.6569 24 24 22.6569 24 21V3C24 1.34315 22.6569 0 21 0H3ZM3 12C3 7.0293 7.0293 3 12 3C16.9707 3 21 7.0293 21 12C21 16.9707 16.9707 21 12 21C7.0293 21 3 16.9707 3 12ZM17.1093 6.2445C15.7503 5.0376 13.9606 4.3041 12 4.3041H12.0004C11.3896 4.30355 10.7808 4.3756 10.1869 4.51875C11.2488 5.95719 12.2132 7.46505 13.0737 9.03225C14.5938 8.4387 16.1108 7.56165 17.1093 6.2445ZM9.23027 5.78425C9.06318 5.53604 8.89494 5.28612 8.7258 5.0331V5.03355C6.5667 6.0501 4.95615 8.0409 4.46205 10.4385C6.8061 10.4327 9.34365 10.0834 11.5891 9.5016C10.8509 8.19169 10.0546 7.0087 9.23027 5.78425ZM19.6959 11.9491C19.6868 10.1932 19.075 8.49358 17.9629 7.1346V7.13415C16.8744 8.4855 15.213 9.5583 13.6592 10.1851C13.7385 10.3595 13.819 10.5297 13.8986 10.698C14.0552 11.0291 14.2084 11.3531 14.3427 11.6881C16.1454 11.5063 17.9157 11.5981 19.6959 11.9491ZM12.5208 11.3241C12.4146 11.1085 12.3106 10.8972 12.2142 10.6923C9.6267 11.4262 6.99195 11.7619 4.3077 11.7746C4.24686 13.7549 4.9548 15.682 6.2832 17.1521C7.66695 14.5627 10.3332 13.0858 12.8397 11.9806C12.7349 11.7588 12.6268 11.5393 12.5208 11.3241ZM19.6 13.2182C18.5166 12.9346 17.4013 12.7909 16.2813 12.7906L16.2808 12.7902C15.7822 12.7902 15.2843 12.8263 14.7909 12.8982C15.4835 14.7015 15.8768 16.4901 16.2876 18.3584L16.2939 18.3873C17.1701 17.7985 17.9157 17.0358 18.4845 16.1465C19.0533 15.2572 19.433 14.2605 19.6 13.2182ZM15.0064 19.087C14.6329 17.112 14.0763 15.0825 13.3671 13.2497L13.3666 13.2501C10.83 14.1046 8.67135 15.8155 7.2777 18.0763C8.62692 19.1285 10.2895 19.6988 12.0004 19.6964C13.0333 19.6977 14.0557 19.4905 15.0064 19.087Z" fill="white"/>
</svg>
