<svg width="25" height="24" viewBox="0 0 25 24" fill="none" xmlns="http://www.w3.org/2000/svg">
<path d="M12.3277 1.03134e-06C5.51664 -0.00275316 0 5.51113 0 12.3167C0 17.6984 3.451 22.2731 8.25706 23.9532C8.90429 24.1157 8.80514 23.6557 8.80514 23.3417V21.2073C5.06771 21.6452 4.91623 19.1719 4.6656 18.7588C4.15882 17.894 2.96075 17.6736 3.3188 17.2605C4.16984 16.8226 5.03741 17.3707 6.04269 18.8552C6.7698 19.9321 8.1882 19.7503 8.90705 19.5713C9.06403 18.924 9.40005 18.3456 9.86275 17.8967C5.99036 17.2027 4.37641 14.8396 4.37641 12.0303C4.37641 10.667 4.82534 9.41382 5.70668 8.40303C5.14482 6.73675 5.75901 5.31008 5.84163 5.098C7.44182 4.95479 9.10535 6.24375 9.23479 6.34565C10.1437 6.10053 11.182 5.97108 12.3443 5.97108C13.512 5.97108 14.5531 6.10604 15.4703 6.35391C15.7815 6.11705 17.3238 5.00987 18.8111 5.14482C18.891 5.3569 19.4914 6.75052 18.9626 8.39477C19.8549 9.40831 20.3094 10.6725 20.3094 12.0386C20.3094 14.8533 18.6844 17.2192 14.801 17.9022C15.1336 18.2293 15.3977 18.6195 15.5779 19.0498C15.7581 19.4801 15.8507 19.942 15.8504 20.4085V23.507C15.8724 23.7549 15.8504 24 16.2635 24C21.1412 22.3557 24.6527 17.748 24.6527 12.3195C24.6527 5.51113 19.1333 1.03134e-06 12.3277 1.03134e-06Z" fill="white"/>
</svg>
