<svg width="35" height="28" viewBox="0 0 35 28" fill="none" xmlns="http://www.w3.org/2000/svg">
<path d="M31.5 24.1176H28V9.04411L17.5 15.5042L7 9.04411V24.1176H3.5V3.44537H5.6L17.5 10.7668L29.4 3.44537H31.5V24.1176ZM31.5 0H3.5C1.5575 0 0 1.53319 0 3.44537V24.1176C0 25.0314 0.368749 25.9077 1.02513 26.5539C1.6815 27.2 2.57174 27.563 3.5 27.563H31.5C32.4283 27.563 33.3185 27.2 33.9749 26.5539C34.6312 25.9077 35 25.0314 35 24.1176V3.44537C35 2.5316 34.6312 1.65526 33.9749 1.00913C33.3185 0.362994 32.4283 0 31.5 0Z" fill="white"/>
</svg>
