<svg width="128" height="128" viewBox="0 0 128 128" fill="none" xmlns="http://www.w3.org/2000/svg">
<path d="M116.201 2.36916L12.2174 1.13182C6.10326 1.05907 1.12394 5.92 1.11769 11.9676L1.00252 123.351C1.00112 124.697 2.10316 125.801 3.46407 125.818L124.697 127.26C126.057 127.276 127.162 126.198 127.163 124.852L127.278 13.4688C127.285 7.42123 122.315 2.44191 116.201 2.36916ZM122.238 122.356L5.93319 120.972L6.02794 29.3309L100.402 30.4539C101.763 30.4701 102.867 29.392 102.869 28.0459C102.87 26.6998 101.768 25.5955 100.407 25.5793L6.03298 24.4564L6.04584 12.0263C6.04931 8.66647 8.8156 5.96595 12.2123 6.00637L116.196 7.24371C119.593 7.28412 122.354 10.0504 122.35 13.4102L122.238 122.356Z" fill="#FF4301"/>
<path d="M22.0589 8.01969C17.9826 7.97013 14.6629 11.2091 14.6589 15.2398C14.6548 19.2705 17.9678 22.5901 22.0441 22.6396C26.1204 22.6892 29.44 19.4503 29.4441 15.4195C29.4482 11.3888 26.1352 8.06925 22.0589 8.01969ZM22.049 17.7663C20.6903 17.7498 19.5859 16.6433 19.5873 15.2997C19.5886 13.9561 20.6952 12.8765 22.0539 12.893C23.4127 12.9095 24.5171 14.0161 24.5157 15.3596C24.5143 16.7032 23.4078 17.7828 22.049 17.7663Z" fill="#FF4301"/>
<path d="M40.9318 8.08842C36.8555 8.03886 33.5359 11.2778 33.5318 15.3086C33.5277 19.3393 36.8407 22.6589 40.917 22.7085C44.9933 22.758 48.313 19.5191 48.3171 15.4883C48.3212 11.4576 45.0081 8.13798 40.9318 8.08842ZM40.922 17.8351C39.5632 17.8186 38.4589 16.7121 38.4602 15.3685C38.4616 14.0249 39.5681 12.9453 40.9269 12.9618C42.2857 12.9783 43.39 14.0848 43.3887 15.4284C43.3873 16.772 42.2807 17.8517 40.922 17.8351Z" fill="#FF4301"/>
<path d="M59.8034 8.15702C55.7271 8.10746 52.4074 11.3464 52.4033 15.3771C52.3992 19.4078 55.7122 22.7274 59.7886 22.777C63.8649 22.8265 67.1845 19.5876 67.1886 15.5569C67.1927 11.5262 63.8797 8.20658 59.8034 8.15702ZM59.7935 17.9037C58.4347 17.8871 57.3304 16.7806 57.3317 15.437C57.3331 14.0935 58.4397 13.0138 59.7984 13.0303C61.1572 13.0469 62.2615 14.1534 62.2602 15.497C62.2588 16.8405 61.1523 17.9202 59.7935 17.9037Z" fill="#FF4301"/>
<path d="M111.431 37.2273L75.7588 36.8087C74.4001 36.7928 73.2976 37.8571 73.2962 39.186C73.2948 40.5148 74.395 41.605 75.7538 41.6209L108.965 42.0106L108.936 69.9211L19.3877 68.8704L19.417 40.9599L52.8746 41.3524C54.2334 41.3684 55.3359 40.3041 55.3373 38.9752C55.3387 37.6464 54.2384 36.5562 52.8797 36.5403L16.962 36.1188C15.6033 36.1029 14.5007 37.1672 14.4993 38.496L14.4649 71.2187C14.4635 72.5476 15.5638 73.6377 16.9225 73.6537L111.391 74.7621C112.75 74.7781 113.852 73.7138 113.854 72.3849L113.888 39.6623C113.89 38.3336 112.789 37.2433 111.431 37.2273Z" fill="#FF4301"/>
<path d="M42.4422 83.4676L16.815 83.1626C15.4541 83.1464 14.3498 84.2245 14.3484 85.5706L14.3222 110.919C14.3208 112.265 15.4228 113.37 16.7838 113.386L42.4109 113.691C43.7719 113.707 44.8762 112.629 44.8776 111.283L44.9038 85.9342C44.9052 84.5881 43.8031 83.4838 42.4422 83.4676ZM39.9518 108.787L19.253 108.54L19.2741 88.0666L39.973 88.3129L39.9518 108.787Z" fill="#FF4301"/>
<path d="M76.849 83.5929L51.2219 83.288C49.8609 83.2718 48.7566 84.3499 48.7552 85.696L48.729 111.045C48.7276 112.391 49.8297 113.495 51.1906 113.511L76.8178 113.816C78.1787 113.832 79.283 112.754 79.2844 111.408L79.3106 86.0596C79.312 84.7135 78.21 83.6091 76.849 83.5929ZM74.3587 108.912L53.6598 108.666L53.681 88.192L74.3798 88.4383L74.3587 108.912Z" fill="#FF4301"/>
<path d="M111.256 83.7184L85.6288 83.4135C84.2679 83.3973 83.1635 84.4754 83.1622 85.8215L83.1359 111.17C83.1346 112.516 84.2366 113.62 85.5976 113.637L111.225 113.942C112.586 113.958 113.69 112.88 113.691 111.533L113.718 86.1851C113.719 84.8389 112.617 83.7346 111.256 83.7184ZM108.766 109.037L88.0668 108.791L88.0879 88.3175L108.787 88.5638L108.766 109.037Z" fill="#FF4301"/>
<path d="M113.21 25.7509C112.752 25.2921 112.117 25.0237 111.469 25.0158C110.82 25.0078 110.184 25.2607 109.725 25.7082C109.267 26.1557 109.002 26.781 109.002 27.4216C109.001 28.0623 109.264 28.694 109.722 29.1528C110.18 29.6115 110.815 29.8799 111.464 29.8878C112.112 29.8958 112.748 29.6429 113.207 29.1954C113.665 28.7479 113.93 28.1226 113.93 27.482C113.931 26.8413 113.668 26.2096 113.21 25.7509Z" fill="#FF4301"/>
<path d="M66.3701 37.0282C65.9122 36.5695 65.2791 36.3011 64.6285 36.2931C63.9803 36.285 63.3442 36.5378 62.8854 36.9851C62.4266 37.4324 62.1622 38.0575 62.1616 38.698C62.161 39.3409 62.424 39.9701 62.882 40.4287C63.3399 40.8898 63.9754 41.1558 64.6236 41.1639C65.2717 41.1719 65.9078 40.9216 66.3667 40.4718C66.8255 40.0245 67.0898 39.4019 67.0905 38.7589C67.0911 38.1184 66.8281 37.4868 66.3701 37.0282Z" fill="#FF4301"/>
</svg>
