<svg width="113" height="114" viewBox="0 0 113 114" fill="none" xmlns="http://www.w3.org/2000/svg">
<path d="M46.7487 7.60498C25.0808 7.60498 7.5155 25.468 7.5155 47.5032C7.5155 69.5383 25.0808 87.4013 46.7487 87.4013C68.4166 87.4013 85.9819 69.5383 85.9819 47.5032C85.9583 25.4779 68.4068 7.62897 46.7487 7.60498ZM46.7487 11.4048C58.2889 11.4141 69.103 17.1338 75.7364 26.7371L71.0658 31.4869C69.9292 30.7875 68.628 30.4132 67.2994 30.4039C63.1722 30.4039 59.8264 33.8064 59.8264 38.0036C59.833 39.3561 60.1989 40.6815 60.8857 41.8395L48.6525 54.2801C46.3361 52.8438 43.4249 52.8438 41.1085 54.2801L32.6117 45.6393C33.2985 44.4813 33.6644 43.1559 33.671 41.8034C33.6761 37.6146 30.3413 34.2147 26.2223 34.2095C22.8158 34.2052 19.8394 36.5485 18.9903 39.9035H12.0591C15.5964 23.2919 30.0354 11.4297 46.7487 11.4048ZM71.0359 38.0036C71.0359 40.1023 69.3632 41.8034 67.2994 41.8034C65.2357 41.8034 63.5629 40.1023 63.5629 38.0036C63.5629 35.9049 65.2357 34.2038 67.2994 34.2038C69.3632 34.2038 71.0359 35.9049 71.0359 38.0036ZM48.617 60.8025C48.617 62.9012 46.9442 64.6024 44.8805 64.6024C42.8167 64.6024 41.144 62.9012 41.144 60.8025C41.144 58.7039 42.8167 57.0027 44.8805 57.0027C46.9442 57.0027 48.617 58.7039 48.617 60.8025ZM29.9345 41.8034C29.9345 43.9021 28.2617 45.6032 26.198 45.6032C24.1343 45.6032 22.4615 43.9021 22.4615 41.8034C22.4615 39.7047 24.1343 38.0036 26.198 38.0036C28.2617 38.0036 29.9345 39.7047 29.9345 41.8034ZM63.9959 79.0669C58.72 82.046 52.7836 83.6067 46.7487 83.6013C27.1578 83.6148 11.2653 67.4753 11.252 47.5523C11.2511 46.2666 11.3179 44.9815 11.4519 43.7031H18.9903C19.8396 47.0481 22.8008 49.3898 26.198 49.4028C27.5279 49.3962 28.8313 49.024 29.97 48.3256L38.4668 56.9664C37.78 58.1244 37.414 59.4498 37.4075 60.8023C37.4075 64.9995 40.7533 68.402 44.8805 68.402C49.0077 68.402 52.3535 64.9995 52.3535 60.8023C52.3469 59.4498 51.981 58.1244 51.2942 56.9664L63.5274 44.5258C64.6661 45.2242 65.9695 45.5964 67.2994 45.603C71.4266 45.603 74.7724 42.2005 74.7724 38.0034C74.7659 36.6509 74.3999 35.3254 73.7131 34.1674L77.7859 30.0275C87.2941 47.4421 81.12 69.3978 63.9959 79.0669Z" fill="#FF4301"/>
<path d="M93.4548 19.0051C96.852 18.9921 99.8132 16.6506 100.663 13.3054H112.137V9.50555H100.663C99.8132 6.16027 96.852 3.81887 93.4548 3.80581C89.3276 3.80581 85.9818 7.20831 85.9818 11.4055C85.9884 12.758 86.3543 14.0834 87.0411 15.2414L83.7586 18.5795C68.0525 -2.22951 38.7322 -6.15045 18.27 9.82188C-2.19223 25.7942 -6.04782 55.6117 9.6583 76.4207C24.4838 96.0627 51.66 100.827 72.097 87.3678L77.7354 93.1017L80.3771 95.7882L95.4165 111.083C99.2415 114.972 105.443 114.972 109.268 111.083C113.093 107.193 113.093 100.886 109.268 96.9966L94.2283 81.7022L91.5866 79.0158L85.9482 73.2818C95.9571 57.6038 95.9571 37.4041 85.9482 21.7258L89.6847 17.926C90.8227 18.6247 92.1256 18.9975 93.4548 19.0051ZM93.4548 7.60563C95.5185 7.60563 97.1913 9.30677 97.1913 11.4055C97.1913 13.5042 95.5185 15.2053 93.4548 15.2053C91.3911 15.2053 89.7183 13.5042 89.7183 11.4055C89.7183 9.30677 91.3913 7.60563 93.4548 7.60563ZM106.626 99.683C109.019 102.062 109.062 105.963 106.723 108.396C104.384 110.829 100.548 110.874 98.1556 108.495C98.1226 108.463 98.0904 108.43 98.0582 108.396L83.0188 93.1017L91.5866 84.3887L106.626 99.683ZM88.9449 81.7022L80.3771 90.4153L75.2058 85.1563C75.4692 84.9511 75.7158 84.725 75.9755 84.5141C76.2352 84.3032 76.536 84.0505 76.8143 83.813C77.2235 83.4635 77.627 83.1101 78.0231 82.7472C78.2267 82.5572 78.421 82.3672 78.6209 82.1772C79.3869 81.4477 80.1286 80.6934 80.846 79.9144C81.0328 79.7111 81.2197 79.5135 81.4065 79.3065C81.7633 78.9037 82.1108 78.4933 82.4546 78.0772C82.6888 77.796 82.9186 77.5118 83.144 77.2242C83.3495 76.962 83.5718 76.7112 83.7736 76.4433L88.9449 81.7022ZM81.6998 72.8772C81.1113 73.7131 80.5041 74.532 79.8633 75.3204C79.6765 75.5503 79.4766 75.7726 79.2842 75.9987C78.7125 76.6751 78.1221 77.3313 77.5131 77.967C77.2478 78.2456 76.9781 78.5199 76.7041 78.7897C76.0813 79.4091 75.4363 80.0094 74.7686 80.5908C74.5463 80.7808 74.3277 80.9879 74.1016 81.1798C73.3263 81.8314 72.5211 82.4489 71.6991 83.0474C52.359 97.0984 25.4798 92.5451 11.6629 72.8772C-2.15393 53.2093 2.32356 25.8745 21.6637 11.8234C41.0038 -2.22761 67.8829 2.32554 81.6998 21.9937C92.3911 37.2125 92.3911 57.6584 81.6998 72.8772Z" fill="#FF4301"/>
</svg>
