<svg width="144" height="150" viewBox="0 0 144 150" fill="none" xmlns="http://www.w3.org/2000/svg">
<path d="M133.517 -0.00012207H58.9794C56.3783 -0.00012207 53.8837 1.03318 52.0444 2.87246C50.2051 4.71174 49.1718 7.20635 49.1718 9.80749V15.6921H31.5181C30.2302 15.6921 28.9548 15.9457 27.7649 16.4386C26.575 16.9315 25.4938 17.6539 24.5831 18.5646C22.7438 20.4039 21.7105 22.8985 21.7105 25.4997V84.3453C21.7105 86.9465 22.7438 89.4411 24.5831 91.2803C25.4938 92.1911 26.575 92.9135 27.7649 93.4064C28.9548 93.8992 30.2302 94.1529 31.5181 94.1529H58.9794V105.922H55.0564C52.4552 105.922 49.9606 106.955 48.1214 108.795C46.2821 110.634 45.2488 113.129 45.2488 115.73V119.653C45.2488 120.173 45.4554 120.672 45.8233 121.04C46.1911 121.408 46.6901 121.614 47.2103 121.614H98.2099C98.7301 121.614 99.229 121.408 99.5969 121.04C99.9647 120.672 100.171 120.173 100.171 119.653V115.73C100.171 114.442 99.9177 113.166 99.4248 111.976C98.9319 110.787 98.2095 109.705 97.2988 108.795C96.3881 107.884 95.3069 107.161 94.117 106.669C92.9271 106.176 91.6517 105.922 90.3638 105.922H86.4407V94.1529H113.902C116.503 94.1529 118.998 93.1196 120.837 91.2803C122.676 89.4411 123.71 86.9465 123.71 84.3453V70.6147H133.517C136.118 70.6147 138.613 69.5814 140.452 67.7421C142.292 65.9028 143.325 63.4082 143.325 60.8071V9.80749C143.325 8.51953 143.071 7.24419 142.578 6.05428C142.085 4.86436 141.363 3.78318 140.452 2.87246C139.542 1.96174 138.46 1.23932 137.27 0.746438C136.081 0.253559 134.805 -0.00012207 133.517 -0.00012207ZM58.9794 3.92292H133.517C135.078 3.92292 136.575 4.5429 137.678 5.64647C138.782 6.75004 139.402 8.2468 139.402 9.80749V11.769H53.0949V9.80749C53.0949 8.2468 53.7148 6.75004 54.8184 5.64647C55.922 4.5429 57.4187 3.92292 58.9794 3.92292ZM96.2483 115.73V117.691H49.1718V115.73C49.1718 114.169 49.7918 112.672 50.8954 111.569C51.9989 110.465 53.4957 109.845 55.0564 109.845H90.3638C91.9245 109.845 93.4212 110.465 94.5248 111.569C95.6284 112.672 96.2483 114.169 96.2483 115.73ZM82.5177 105.922H62.9025V94.1529H82.5177V105.922ZM113.902 90.2299H31.5181C29.9574 90.2299 28.4607 89.6099 27.3571 88.5063C26.2535 87.4028 25.6336 85.906 25.6336 84.3453V78.4608H119.787V84.3453C119.787 85.906 119.167 87.4028 118.063 88.5063C116.959 89.6099 115.463 90.2299 113.902 90.2299ZM119.787 74.5377H25.6336V25.4997C25.6336 23.939 26.2535 22.4422 27.3571 21.3386C28.4607 20.2351 29.9574 19.6151 31.5181 19.6151H49.1718V60.8071C49.1718 63.4082 50.2051 65.9028 52.0444 67.7421C53.8837 69.5814 56.3783 70.6147 58.9794 70.6147H119.787V74.5377ZM133.517 66.6916H58.9794C57.4187 66.6916 55.922 66.0716 54.8184 64.9681C53.7148 63.8645 53.0949 62.3677 53.0949 60.8071V15.6921H139.402V60.8071C139.402 62.3677 138.782 63.8645 137.678 64.9681C136.575 66.0716 135.078 66.6916 133.517 66.6916Z" fill="#FF4301"/>
<path d="M111.941 82.3839H115.864V86.307H111.941V82.3839Z" fill="#FF4301"/>
<path d="M104.094 82.3839H108.017V86.307H104.094V82.3839Z" fill="#FF4301"/>
<path d="M96.2484 82.3839H100.171V86.307H96.2484V82.3839Z" fill="#FF4301"/>
<path d="M133.517 19.615H58.9795C58.4592 19.615 57.9603 19.8217 57.5925 20.1895C57.2246 20.5574 57.0179 21.0563 57.0179 21.5765V60.807C57.0179 61.3272 57.2246 61.8261 57.5925 62.194C57.9603 62.5618 58.4592 62.7685 58.9795 62.7685H133.517C134.038 62.7685 134.536 62.5618 134.904 62.194C135.272 61.8261 135.479 61.3272 135.479 60.807V21.5765C135.479 21.0563 135.272 20.5574 134.904 20.1895C134.536 19.8217 134.038 19.615 133.517 19.615ZM72.7101 54.9224H80.5562V50.9993H72.7101V47.0763H76.6332V43.1533H72.7101V39.2302H76.6332V35.3072H72.7101V31.3841H84.4793V58.8454H72.7101V54.9224ZM102.349 42.8198C101.902 43.0361 101.413 43.15 100.917 43.1533H99.426C98.9299 43.15 98.4407 43.0361 97.9941 42.8198C97.4666 42.556 97.0234 42.1498 96.7149 41.6471C96.4063 41.1444 96.2447 40.5654 96.2484 39.9756C96.2462 39.5271 96.3701 39.087 96.6059 38.7055C96.8417 38.324 97.18 38.0164 97.5822 37.8179C98.2888 37.4702 98.8964 36.9501 99.3489 36.3056C99.8014 35.661 100.084 34.9129 100.171 34.1303L102.78 36.7391C103.202 37.1654 103.535 37.6708 103.76 38.2262C103.986 38.7816 104.099 39.3761 104.094 39.9756C104.098 40.5654 103.937 41.1444 103.628 41.6471C103.319 42.1498 102.876 42.556 102.349 42.8198ZM98.2099 46.939C98.6113 47.0149 99.0178 47.0607 99.426 47.0763H100.917C101.325 47.0607 101.732 47.0149 102.133 46.939V58.8454H98.2099V46.939ZM115.864 43.1533H119.787V58.8454H115.864V43.1533ZM116.629 39.2302L117.825 35.621L119.022 39.2302H116.629ZM131.556 58.8454H123.71V41.1917C123.738 40.9835 123.738 40.7723 123.71 40.564L119.787 28.7949C119.658 28.4025 119.408 28.0608 119.073 27.8185C118.739 27.5763 118.336 27.4459 117.923 27.4459C117.51 27.4459 117.108 27.5763 116.773 27.8185C116.438 28.0608 116.189 28.4025 116.06 28.7949L112.137 40.564C112.042 40.763 111.976 40.9743 111.941 41.1917V58.8454H106.056V44.8598C107.317 43.5465 108.02 41.796 108.018 39.9756C108.023 38.8596 107.806 37.7538 107.378 36.723C106.95 35.6923 106.321 34.7574 105.526 33.9733L99.6418 28.0888C99.366 27.8166 99.0157 27.6322 98.6352 27.5589C98.2547 27.4856 97.861 27.5266 97.5038 27.6768C97.1473 27.814 96.8386 28.0523 96.6155 28.3624C96.3925 28.6725 96.2649 29.041 96.2484 29.4226V33.6399C96.2463 33.7779 96.2069 33.9127 96.1343 34.0301C96.0618 34.1475 95.9589 34.2431 95.8365 34.3068C94.7807 34.8301 93.8923 35.6383 93.2719 36.6401C92.6514 37.6419 92.3235 38.7972 92.3253 39.9756C92.3233 41.796 93.0263 43.5465 94.2869 44.8598V58.8454H88.4023V29.4226C88.4023 28.9024 88.1956 28.4035 87.8278 28.0356C87.4599 27.6677 86.961 27.4611 86.4408 27.4611H70.7486C70.2284 27.4611 69.7294 27.6677 69.3616 28.0356C68.9937 28.4035 68.7871 28.9024 68.7871 29.4226V58.8454H60.941V23.538H131.556V58.8454Z" fill="#FF4301"/>
<path d="M0 63.1578H41.3158C46.8386 63.1578 51.3158 67.635 51.3158 73.1578V150H0V63.1578Z" fill="#202060"/>
<path d="M21.9349 133.417C20.3212 133.417 19.0052 134.733 19.0052 136.347C19.0052 137.96 20.3212 139.277 21.9349 139.277C23.5484 139.277 24.8644 137.96 24.8644 136.347C24.8644 134.733 23.5484 133.417 21.9349 133.417Z" fill="#FF4301"/>
<path d="M43.9453 78.3712V75.3627C43.9453 71.8977 41.1264 69.0788 37.6616 69.0788H6.2839C2.81895 69.0788 0 71.8977 0 75.3627V137.795V137.795C0 141.26 2.81895 144.079 6.2839 144.079H37.6615C41.1264 144.079 43.9453 141.26 43.9453 137.795V137.793V78.3826C43.9453 78.3807 43.9455 78.379 43.9455 78.3769C43.9455 78.3749 43.9453 78.3732 43.9453 78.3712ZM41.0154 137.795C41.0156 139.645 39.511 141.149 37.6616 141.149H6.2839C4.43438 141.149 2.92969 139.645 2.92969 137.795V131.545H41.0154V137.795ZM41.0154 128.616H2.92969V79.8419H41.0154V128.616ZM41.0154 76.9122H2.92969V75.3627C2.92969 73.5132 4.43438 72.0085 6.2839 72.0085H37.6615C39.5109 72.0085 41.0154 73.5132 41.0154 75.3627V76.9122Z" fill="#FF4301"/>
<path d="M24.7903 87.8986H24.7557C23.9469 87.8986 23.2909 88.5544 23.2909 89.3635C23.2909 90.1725 23.9469 90.8283 24.7557 90.8283H24.7903C25.5992 90.8283 26.2552 90.1725 26.2552 89.3635C26.2552 88.5544 25.5992 87.8986 24.7903 87.8986Z" fill="#FF4301"/>
<path d="M35.0099 87.8986H28.9989C28.19 87.8986 27.5341 88.5544 27.5341 89.3635C27.5341 90.1725 28.19 90.8283 28.9989 90.8283H35.0099C35.8188 90.8283 36.4747 90.1725 36.4747 89.3635C36.4747 88.5544 35.8188 87.8986 35.0099 87.8986Z" fill="#FF4301"/>
<path d="M30.5659 116.515C30.4956 116.287 30.3707 116.08 30.2023 115.912L25.8433 111.553L32.0583 105.338C32.3334 105.063 32.4876 104.691 32.4876 104.302C32.4876 103.914 32.3332 103.541 32.0584 103.266L27.9152 99.1232C27.3431 98.5513 26.4158 98.5512 25.8435 99.1234L19.6287 105.338L13.414 99.1234C12.842 98.5513 11.9146 98.5513 11.3424 99.1234L7.19907 103.266C6.92441 103.541 6.77002 103.914 6.77002 104.302C6.77002 104.691 6.92441 105.063 7.19907 105.338L13.414 111.553L9.05518 115.912C8.78037 116.186 8.62613 116.559 8.62613 116.947L8.62598 120.484L7.19907 121.911C6.62705 122.483 6.62705 123.411 7.19907 123.983C7.48516 124.269 7.86001 124.412 8.23487 124.412C8.60972 124.412 8.98457 124.268 9.27066 123.983L10.6976 122.556H14.2341C14.6226 122.556 14.9953 122.401 15.2699 122.127L19.6287 117.768L23.9875 122.127C24.156 122.295 24.363 122.42 24.5905 122.49L30.5897 124.346C30.7321 124.39 30.8779 124.412 31.0225 124.412C31.4052 124.412 31.7795 124.261 32.0584 123.983C32.4426 123.598 32.5825 123.033 32.4218 122.514L30.5659 116.515ZM26.8794 102.231L28.9512 104.302L23.7721 109.481L21.7003 107.41L26.8794 102.231ZM13.6276 119.626H11.5558L11.556 117.554L15.4857 113.624L17.5574 115.696L13.6276 119.626ZM25.8028 119.799L10.3066 104.302L12.3783 102.231L22.7346 112.587C22.7352 112.588 22.7357 112.588 22.7363 112.589C22.7368 112.589 22.7374 112.59 22.738 112.59L27.8747 117.727L28.8026 120.727L25.8028 119.799Z" fill="#FF4301"/>
</svg>
