<svg width="368" height="415" viewBox="0 0 368 415" fill="none" xmlns="http://www.w3.org/2000/svg">
<path fill-rule="evenodd" clip-rule="evenodd" d="M72.0241 279.333C32.2463 204.617 60.5691 111.802 135.285 72.0241L156.172 111.257C103.124 139.499 83.0145 205.398 111.257 258.446C139.499 311.494 205.398 331.603 258.446 303.361L279.333 342.594C204.617 382.372 111.802 354.049 72.0241 279.333Z" fill="#FA7D09"/>
<path fill-rule="evenodd" clip-rule="evenodd" d="M342.594 135.285C302.816 60.5691 210 32.2463 135.285 72.0241L156.172 111.257C209.22 83.0145 275.119 103.124 303.361 156.172C331.603 209.22 311.494 275.119 258.446 303.361L279.333 342.594C354.049 302.816 382.372 210 342.594 135.285Z" fill="#FF4301"/>
</svg>
