<svg width="110" height="40" viewBox="0 0 110 40" fill="none" xmlns="http://www.w3.org/2000/svg">
<path d="M46.3196 39.962H12.8849L17.5247 35.4388H35.1679L27.9234 28.0629L29.5514 23.234L46.3196 39.962Z" fill="white"/>
<path d="M0.0649414 0.0473633H33.4996L28.8599 4.57066H11.2166L18.4611 11.9465L16.8331 16.7754L0.0649414 0.0473633Z" fill="white"/>
<path d="M46.3512 0.0267944H40.0632H39.9614L0.0649414 39.9732L6.44537 39.9418L46.3512 0.0267944Z" fill="white"/>
<path d="M50.2985 20.6525L57.5979 11.3197L50.2985 11.2984V8.99719H60.7475V11.1493L53.4694 20.5033L60.7475 20.5246V22.8259H50.2985V20.6525ZM64.1078 8.99719H66.619V22.8259H64.1078V8.99719ZM75.0404 8.99719C77.1398 8.99719 78.8354 9.6222 80.1266 10.8723C81.4316 12.1223 82.0844 13.8056 82.0844 15.9222C82.0844 18.0246 81.4316 19.7007 80.1266 20.9508C78.8354 22.2009 77.1398 22.8259 75.0404 22.8259H70.5501V8.99719H75.0404ZM73.0826 20.546H75.0404C76.3455 20.546 77.4026 20.1056 78.2113 19.2249C78.9774 18.3726 79.3605 17.2717 79.3605 15.9222C79.3605 14.5443 78.9774 13.4292 78.2113 12.5769C77.4164 11.7104 76.3598 11.2771 75.0404 11.2771H73.0826V20.546ZM88.3528 8.99719H91.5024L96.0352 22.8259H93.3751L92.4175 19.8428H87.2887L86.3098 22.8259H83.6497L88.3528 8.99719ZM87.9272 17.9464H91.8003L89.885 12.0016L87.9272 17.9464ZM101.185 8.99719L107.271 18.7987V8.99719H109.782V22.8259H107.229L100.951 12.6834V22.8259H98.4395V8.99719H101.185ZM55.1932 26.1499C57.2931 26.1499 58.9881 26.7749 60.2793 28.025C61.5844 29.275 62.2372 30.9583 62.2372 33.0749C62.2372 35.1772 61.5844 36.8534 60.2793 38.1035C58.9881 39.3536 57.2931 39.9786 55.1932 39.9786H50.7029V26.1499H55.1932ZM53.2353 37.6986H55.1932C56.4982 37.6986 57.5554 37.2583 58.364 36.3776C59.1302 35.5253 59.5132 34.4243 59.5132 33.0749C59.5132 31.697 59.1302 30.5819 58.364 29.7296C57.5697 28.863 56.5126 28.4298 55.1932 28.4298H53.2353V37.6986ZM65.2921 26.1499H74.1876V28.3233H67.8033V31.9669H73.7832V34.1403H67.8033V37.7839H74.1876V39.9786H65.2921V26.1499ZM78.8891 26.1499L82.2515 36.825L85.6565 26.1499H88.2953L83.5496 39.9786H80.9108L76.229 26.1499H78.8891Z" fill="white"/>
</svg>
